<?xml version="1.0" encoding="utf-8"?><svg xmlns="http://www.w3.org/2000/svg" xmlns:xlink="http://www.w3.org/1999/xlink" width="1309" height="616" preserveAspectRatio="xMidYMid" viewBox="0 0 1309 616" style="z-index:1;display:block;background-color:rgb(255, 255, 255);animation-play-state:paused" ><g transform="translate(654.5,308) scale(1,1) translate(-654.5,-308)" style="transform:matrix(1, 0, 0, 1, 0, 0);animation-play-state:paused" ><linearGradient id="lg-0.7366629703693488" x1="0" x2="1" y1="0" y2="0" style="animation-play-state:paused" ><stop stop-color="#ff00ff" offset="0" style="animation-play-state:paused" ></stop>

  
<stop stop-color="#00ffff" offset="1" style="animation-play-state:paused" ></stop></linearGradient>
<path d="M 0 0 M 0 530.666 Q 130.9 510.723 261.8 503.66 T 523.6 542.174 T 785.4 474.294 T 1047.2 493.667 T 1309 430.964 L 1309 139.516 Q 1178.1 167.769 1047.2 164.473 T 785.4 94.9308 T 523.6 108.269 T 261.8 73.3508 T 0 86.0284 Z" fill="url(#lg-0.7366629703693488)" opacity="0.4" style="opacity:0.4;animation-play-state:paused" ></path>
<path d="M 0 0 M 0 571.847 Q 130.9 536.573 261.8 534.298 T 523.6 529.094 T 785.4 485.282 T 1047.2 450.52 T 1309 469.87 L 1309 174.544 Q 1178.1 152.434 1047.2 147.31 T 785.4 99.4531 T 523.6 99.7557 T 261.8 85.8555 T 0 44.5828 Z" fill="url(#lg-0.7366629703693488)" opacity="0.4" style="opacity:0.4;animation-play-state:paused" ></path>
<path d="M 0 0 M 0 536.285 Q 130.9 540.065 261.8 533.652 T 523.6 489.618 T 785.4 489.974 T 1047.2 470.596 T 1309 441.099 L 1309 167.729 Q 1178.1 128.806 1047.2 125.959 T 785.4 152.509 T 523.6 103.492 T 261.8 60.5292 T 0 61.4453 Z" fill="url(#lg-0.7366629703693488)" opacity="0.4" style="opacity:0.4;animation-play-state:paused" ></path>
<path d="M 0 0 M 0 542.327 Q 130.9 554.738 261.8 548.031 T 523.6 512.164 T 785.4 487.533 T 1047.2 485.629 T 1309 444.787 L 1309 175.128 Q 1178.1 143.085 1047.2 140.435 T 785.4 127.619 T 523.6 125.049 T 261.8 95.2528 T 0 56.3165 Z" fill="url(#lg-0.7366629703693488)" opacity="0.4" style="opacity:0.4;animation-play-state:paused" ></path></g></svg>